<svg xmlns="http://www.w3.org/2000/svg" width="71.151" height="82" viewBox="0 0 71.151 82">
  <g id="Grupo_92" data-name="Grupo 92" transform="translate(-67.191 -19)">
    <g id="Grupo_91" data-name="Grupo 91" transform="translate(56.925 15.161)">
      <path id="Caminho_75" data-name="Caminho 75" d="M69.714,9.7A143.455,143.455,0,0,0,54.758,8.15l-.1,0a2.063,2.063,0,0,0-.338.055A2.059,2.059,0,0,0,53.137,7.8L50.47,7.735l-.885-2.517A2.063,2.063,0,0,0,47.64,3.839h0A2.062,2.062,0,0,0,45.694,5.22l-.881,2.515L42.146,7.8a2.061,2.061,0,0,0-1.174.4,1.948,1.948,0,0,0-.347-.057l-.1,0A146.525,146.525,0,0,0,25.594,9.662a2.061,2.061,0,0,0-1.749,2.014l0,.258c-.045,3.64-.054,4.5,2.246,6.243.236.177.505.381.816.631v2.8a2.178,2.178,0,0,0-.209.107,2.061,2.061,0,0,0-1.017,1.816l.1,5.554a2.065,2.065,0,0,0,1,1.732c.043.024.084.048.126.074V36.41l-.272,6.623c0,.027,0,.056,0,.084a11.386,11.386,0,0,0,5.438,9.677c.021.014.043.027.064.04l7.525,4.332a2.037,2.037,0,0,0,.38.171,2.051,2.051,0,0,0,.608.52l.921.519a2.061,2.061,0,0,0,.715.227,2.013,2.013,0,0,0,.439.378l3.8,2.361a2.066,2.066,0,0,0,2.1.045l15.274-8.6a11.188,11.188,0,0,0,5.52-9.727c0-.069,0-.139-.01-.208a236.3,236.3,0,0,1-1.011-24.008c.281-.228.53-.42.747-.589,2.317-1.789,2.317-2.647,2.316-6.256v-.26A2.06,2.06,0,0,0,69.714,9.7Z" transform="translate(-0.708 0)" fill="#fff"/>
      <path id="Caminho_76" data-name="Caminho 76" d="M63.641,51.839a9.46,9.46,0,0,0,4.609-8.178A248.242,248.242,0,0,1,67.2,18c0-.1,0-.2-.008-.3,3.232-2.818,3.169-1.521,3.169-6.345a144.5,144.5,0,0,0-15.2-1.58C53.168,11.291,51.3,11.532,52.235,14a89.755,89.755,0,0,1,11.317,1.243l-.64,4.322L62.9,21.733,43.972,58.274l3.916,2.437ZM40.688,9.771A148.587,148.587,0,0,0,25.5,11.315c-.055,4.9-.1,3.5,3.169,6.344q-.011.166-.011.344V36.844l-.281,6.871a9.566,9.566,0,0,0,4.61,8.178l7.763,4.47L50.928,36.356a7.277,7.277,0,0,0-4.084-1.222,7.051,7.051,0,0,0-2.35.437l-3.828,1.222a7.5,7.5,0,0,1-2.347.429,7.635,7.635,0,0,1-5.395-2.258V23.8l-.064-5.527-.507-3.088c3.918-.582,7.672-.977,11.382-1.163.733-2.488-1.079-2.75-3.047-4.253ZM62.849,30.614,51.02,53.927l10.358-5.743A5.219,5.219,0,0,0,63.9,43.661ZM39.014,50.273l-3.762-2.028a5.307,5.307,0,0,1-2.609-4.528l.281-3.446a12.578,12.578,0,0,0,5.395,1.218A12.27,12.27,0,0,0,44.4,39.833Zm0,0" transform="translate(-0.795 -0.31)" fill="#34695c" fill-rule="evenodd"/>
      <path id="Caminho_77" data-name="Caminho 77" d="M30.8,23v-.063A14.1,14.1,0,0,0,37.849,25.1a13.792,13.792,0,0,0,4.091-.41l3.9-1.089a11.517,11.517,0,0,1,3.713-.426,13.894,13.894,0,0,1,7.138,2.462l1.907-4.1c-2.347-2.264-5.768-2.906-9.045-3.032a17.83,17.83,0,0,0-5.139.564l-3.809,1a8.722,8.722,0,0,1-2.758.37,9.4,9.4,0,0,1-3.936-1.018l-3.168-1.5Zm0,0" transform="translate(-1.069 -0.736)" fill="#34695c" fill-rule="evenodd"/>
      <path id="Caminho_78" data-name="Caminho 78" d="M48.852,5.086l1.4,3.984,4.22.1L51.11,11.728l1.215,4.047-3.473-2.4-3.474,2.4,1.211-4.047L43.231,9.171l4.22-.1Zm0,0" transform="translate(-1.721 -0.065)" fill="#dea400" fill-rule="evenodd"/>
      <path id="Caminho_79" data-name="Caminho 79" d="M53.984,33.909c-3.363-1.515-5.8-1.817-9.767.089-6.391,1.9-11.2-.792-16.612-4.038L27.5,24.232C32.24,26.99,37.567,30.64,43.4,28.845l3.5-1.112a10.523,10.523,0,0,1,3.333-.515,11.932,11.932,0,0,1,6.079,1.763l.478.274,0,.014.5.26L42.81,58.359l-.952-.537Zm0,0" transform="translate(-0.9 -1.065)" fill="#dea400" fill-rule="evenodd"/>
      <path id="Caminho_80" data-name="Caminho 80" d="M11.5,87.681h-.962l0-.539h2.606l0,.539h-1l.012,2.484h-.642Zm2.569,1.411,0,1.073h-.6l-.011-2.82h1.378a1.6,1.6,0,0,1,.829.152.655.655,0,0,1,.258.288.756.756,0,0,1,.079.345.774.774,0,0,1-.536.821.851.851,0,0,1,.274.141.961.961,0,0,1,.245.647,1.659,1.659,0,0,0,.07.426h-.675a2.112,2.112,0,0,1-.063-.4,2.437,2.437,0,0,0-.044-.255.691.691,0,0,0-.079-.172.511.511,0,0,0-.352-.225,1.511,1.511,0,0,0-.293-.023Zm0-.5h.844a.554.554,0,0,0,.3-.058.381.381,0,0,0,.133-.327.314.314,0,0,0-.2-.333.885.885,0,0,0-.233-.023h-.84Zm2.443,1.577-.01-2.82h.6l.011,2.82Zm1.185,0-.01-2.82h1.6a1.254,1.254,0,0,1,.544.084.671.671,0,0,1,.3.329.842.842,0,0,1,.073.326.752.752,0,0,1-.191.511.588.588,0,0,1-.219.159.683.683,0,0,1,.415.662.8.8,0,0,1-.13.463.655.655,0,0,1-.485.267,2.889,2.889,0,0,1-.333.017Zm.592-1.661H19.1a.765.765,0,0,0,.221-.022.308.308,0,0,0,.159-.135.371.371,0,0,0,.053-.192.291.291,0,0,0-.126-.251.593.593,0,0,0-.3-.056h-.833Zm.008,1.158h.818a.716.716,0,0,0,.218-.022.307.307,0,0,0,.159-.134.385.385,0,0,0,.053-.191.288.288,0,0,0-.126-.253.593.593,0,0,0-.3-.055h-.829Zm2.921-2.316.007,1.687a1.073,1.073,0,0,0,.034.307.472.472,0,0,0,.256.3.813.813,0,0,0,.359.078.881.881,0,0,0,.352-.067.419.419,0,0,0,.207-.19,1.03,1.03,0,0,0,.059-.426l-.007-1.687h.6l0,1.661a1.9,1.9,0,0,1-.059.525.818.818,0,0,1-.5.538,1.67,1.67,0,0,1-.67.118,1.354,1.354,0,0,1-.955-.29.808.808,0,0,1-.24-.41,1.881,1.881,0,0,1-.041-.441l-.008-1.7Zm2.995.752.01,2.068h-.572l-.012-2.82H24.4l1.134,2.1-.011-2.1H26.1l.011,2.82h-.741ZM26.4,90.165l1.156-2.82h.691l1.182,2.82h-.708l-.274-.654H27.374l-.271.654Zm1.508-2.143-.4.989h.8Zm1.842,2.143-.021-2.827h.748l.022,2.181h1.21l0,.646Zm3.439-2.82h1.2a2.13,2.13,0,0,1,.695.088.94.94,0,0,1,.6.6,2.212,2.212,0,0,1,.118.723,2.279,2.279,0,0,1-.1.721.911.911,0,0,1-.366.512,1.108,1.108,0,0,1-.545.162c-.111.008-.241.01-.392.01H33.2Zm.6.5.007,1.814h.6a.712.712,0,0,0,.545-.173.856.856,0,0,0,.148-.308,1.615,1.615,0,0,0,.055-.426,1.329,1.329,0,0,0-.118-.577.506.506,0,0,0-.3-.284,1.03,1.03,0,0,0-.34-.045Zm2.488,2.317-.012-2.887h2.092l0,.558H36.952v.537h1.269v.536H36.956l0,.693H38.4v.562Zm0,0" transform="translate(-0.014 -4.35)" fill="#fff" fill-rule="evenodd"/>
      <path id="Caminho_81" data-name="Caminho 81" d="M43.69,89.63v.539H42.638a2.413,2.413,0,0,1-.463-.033,1.043,1.043,0,0,1-.792-.621,2.14,2.14,0,0,1-.159-.849,1.883,1.883,0,0,1,.234-.991.962.962,0,0,1,.484-.419,1.989,1.989,0,0,1,.716-.11h1.021v.539H42.73a.792.792,0,0,0-.633.229,1.074,1.074,0,0,0-.163.69,1.136,1.136,0,0,0,.263.88.914.914,0,0,0,.567.145Zm1.692-2.3a1.777,1.777,0,0,1,.729.145.986.986,0,0,1,.529.574,2.12,2.12,0,0,1,.127.735,1.817,1.817,0,0,1-.145.759,1.055,1.055,0,0,1-.447.482,1.588,1.588,0,0,1-.752.159,1.814,1.814,0,0,1-.829-.179,1.044,1.044,0,0,1-.515-.606,1.791,1.791,0,0,1-.1-.63,1.423,1.423,0,0,1,.4-1.147,1.5,1.5,0,0,1,1.007-.294Zm-.019.474a.66.66,0,0,0-.586.27,1.255,1.255,0,0,0-.136.678,1.174,1.174,0,0,0,.181.73.649.649,0,0,0,.56.23.628.628,0,0,0,.6-.3,1.4,1.4,0,0,0,.125-.663,1.332,1.332,0,0,0-.144-.662.649.649,0,0,0-.6-.278Zm2.406.3.008,2.069h-.57l-.016-2.821h.771l1.13,2.1-.009-2.1h.574l.011,2.821h-.741Zm3.107-.252h-.9v-.5h2.432v.5h-.933l.011,2.321h-.6Zm1.232,2.321,1.155-2.821h.693l1.181,2.821H54.43l-.274-.654H53.083l-.27.654Zm1.507-2.143-.4.989h.8Zm1.824,2.143,0-.5h1.288a.92.92,0,0,0,.414-.063.29.29,0,0,0,.149-.267.317.317,0,0,0-.173-.3.7.7,0,0,0-.318-.053h-.523a1.09,1.09,0,0,1-.692-.173.828.828,0,0,1-.215-.288.946.946,0,0,1,.1-.886.714.714,0,0,1,.541-.278c.084-.007.21-.01.376-.01h1.4v.5H56.526a2.557,2.557,0,0,0-.375.026.254.254,0,0,0-.189.289.263.263,0,0,0,.16.27.9.9,0,0,0,.355.049h.451a1.651,1.651,0,0,1,.518.059.669.669,0,0,1,.415.355,1.094,1.094,0,0,1,.092.44.912.912,0,0,1-.115.46.673.673,0,0,1-.5.344,2.994,2.994,0,0,1-.484.029Zm4.007-2.821h1.2a2.145,2.145,0,0,1,.7.089.943.943,0,0,1,.607.6,2.192,2.192,0,0,1,.118.723,2.311,2.311,0,0,1-.107.721.9.9,0,0,1-.363.511,1.147,1.147,0,0,1-.548.163c-.112.007-.241.01-.39.01h-1.2Zm.6.5.008,1.818h.6a.7.7,0,0,0,.545-.174.8.8,0,0,0,.148-.307,1.537,1.537,0,0,0,.056-.425,1.373,1.373,0,0,0-.116-.578.517.517,0,0,0-.3-.284.918.918,0,0,0-.341-.049Zm3.694-.518a1.769,1.769,0,0,1,.73.145,1,1,0,0,1,.533.574,2.038,2.038,0,0,1,.122.735,1.76,1.76,0,0,1-.144.759,1.019,1.019,0,0,1-.448.482,1.572,1.572,0,0,1-.752.159,1.835,1.835,0,0,1-.828-.179,1.035,1.035,0,0,1-.511-.606,1.791,1.791,0,0,1-.1-.63,1.422,1.422,0,0,1,.392-1.147,1.506,1.506,0,0,1,1.007-.294Zm-.014.474a.663.663,0,0,0-.589.27,1.272,1.272,0,0,0-.137.678,1.226,1.226,0,0,0,.181.73.656.656,0,0,0,.563.23.622.622,0,0,0,.592-.3,1.344,1.344,0,0,0,.126-.663,1.273,1.273,0,0,0-.144-.662.642.642,0,0,0-.592-.278Zm0,0" transform="translate(-1.617 -4.35)" fill="#fff" fill-rule="evenodd"/>
      <path id="Caminho_82" data-name="Caminho 82" d="M67.918,90.163l-.015-3.01h2.185l0,.586H68.618l0,.558h1.322v.559H68.625v.721h1.6l0,.586Zm2.713,0,0-.5h1.289a.889.889,0,0,0,.414-.062.3.3,0,0,0,.148-.267.332.332,0,0,0-.177-.3.752.752,0,0,0-.315-.051h-.522a1.1,1.1,0,0,1-.692-.173.751.751,0,0,1-.215-.29.876.876,0,0,1-.07-.339.9.9,0,0,1,.173-.545.714.714,0,0,1,.541-.278c.085-.007.207-.01.373-.01h1.4l0,.5H71.717a2.069,2.069,0,0,0-.378.023.258.258,0,0,0-.189.288.278.278,0,0,0,.163.274.986.986,0,0,0,.355.045h.451a1.781,1.781,0,0,1,.518.06.668.668,0,0,1,.415.359,1.08,1.08,0,0,1,.092.437.917.917,0,0,1-.115.46.694.694,0,0,1-.5.347,3.577,3.577,0,0,1-.481.027Zm3.55-2.318h-.9v-.5h2.432l0,.5h-.936l.011,2.318h-.6Zm1.233,2.318,1.155-2.821h.692l1.181,2.821h-.7l-.278-.656h-1.07l-.27.656Zm1.507-2.144-.4.989h.8Zm1.822-.677h1.2a2.113,2.113,0,0,1,.693.088.951.951,0,0,1,.607.6,2.211,2.211,0,0,1,.118.722,2.314,2.314,0,0,1-.107.723.887.887,0,0,1-.363.511,1.126,1.126,0,0,1-.548.162c-.107.008-.241.011-.389.011h-1.2Zm.6.5.008,1.814h.6a.7.7,0,0,0,.544-.173.785.785,0,0,0,.149-.308,1.572,1.572,0,0,0-.06-1,.527.527,0,0,0-.3-.286,1.073,1.073,0,0,0-.341-.045Zm3.7-.522a1.734,1.734,0,0,1,.729.145.993.993,0,0,1,.534.577,2.031,2.031,0,0,1,.122.734,1.693,1.693,0,0,1-.145.758.985.985,0,0,1-.447.481,1.564,1.564,0,0,1-.752.159A1.836,1.836,0,0,1,82.253,90a1.041,1.041,0,0,1-.511-.607,1.782,1.782,0,0,1-.1-.629,1.427,1.427,0,0,1,.4-1.148,1.5,1.5,0,0,1,1-.294Zm-.015.474a.656.656,0,0,0-.589.274,1.257,1.257,0,0,0-.136.674,1.228,1.228,0,0,0,.181.731.661.661,0,0,0,.563.228.627.627,0,0,0,.6-.3,1.389,1.389,0,0,0,.122-.66,1.249,1.249,0,0,0-.145-.663.64.64,0,0,0-.592-.281Zm0,0" transform="translate(-3.01 -4.351)" fill="#fff" fill-rule="evenodd"/>
      <path id="Caminho_83" data-name="Caminho 83" d="M39,83.449,38.962,68.06H50.129l.007,2.99H42.612L42.62,73.9h6.757l.007,2.876H42.627l.011,3.685h7.493l.008,2.986Zm0,0" transform="translate(-1.498 -3.354)" fill="#fff" fill-rule="evenodd"/>
      <path id="Caminho_84" data-name="Caminho 84" d="M36.657,80.724l.007,2.729H31.314a13.174,13.174,0,0,1-2.332-.155,5.317,5.317,0,0,1-4.02-3.154,10.5,10.5,0,0,1-.8-4.313,9.448,9.448,0,0,1,1.188-5.035,4.979,4.979,0,0,1,2.465-2.121,10.077,10.077,0,0,1,3.614-.553H36.62l.007,2.732h-4.82A4.048,4.048,0,0,0,28.6,72.02a5.42,5.42,0,0,0-.833,3.494c.008,2.267.447,3.758,1.33,4.469a4.524,4.524,0,0,0,2.865.74Zm0,0" transform="translate(-0.726 -3.357)" fill="#fff" fill-rule="evenodd"/>
      <path id="Caminho_85" data-name="Caminho 85" d="M15.164,70.823H10.274l-.008-2.733H23.491l.007,2.733H18.423l.034,12.6H15.2Zm0,0" transform="translate(0 -3.355)" fill="#fff" fill-rule="evenodd"/>
      <path id="Caminho_86" data-name="Caminho 86" d="M73.114,72.183V83.35H70.023V68.125h4.15l6.053,11.34V68.125h3.091V83.35H79.323Zm-15.194,2.67h4.546a2.883,2.883,0,0,0,1.618-.337,2,2,0,0,0,.726-1.763,1.685,1.685,0,0,0-1.092-1.785,4.312,4.312,0,0,0-1.252-.133H57.921Zm0,2.709V83.35h-3.24V68.125h7.43a8.819,8.819,0,0,1,4.473.815A3.715,3.715,0,0,1,67.968,70.5a4.155,4.155,0,0,1,.422,1.851q0,3.462-2.913,4.451a4.17,4.17,0,0,1,1.462.758,5.088,5.088,0,0,1,1.307,3.493,9.99,9.99,0,0,0,.371,2.3H64.981a13.021,13.021,0,0,1-.337-2.163,8.94,8.94,0,0,0-.226-1.377,3.715,3.715,0,0,0-.407-.918,2.813,2.813,0,0,0-1.9-1.207,8.578,8.578,0,0,0-1.581-.122Zm0,0" transform="translate(-2.319 -3.357)" fill="#dea400" fill-rule="evenodd"/>
    </g>
  </g>
</svg>
