<svg xmlns="http://www.w3.org/2000/svg" width="48" height="48" viewBox="0 0 48 48">
  <g id="business" transform="translate(-1 -1)">
    <g id="Grupo_5" data-name="Grupo 5" transform="translate(1 1)">
      <path id="Caminho_46" data-name="Caminho 46" d="M56.645,10.194,52,5.548,58.194,4Z" transform="translate(-12.516 -1.677)" fill="#52c1b6"/>
      <path id="Caminho_47" data-name="Caminho 47" d="M11.065,21.129A10.065,10.065,0,1,1,21.129,11.065,10.076,10.076,0,0,1,11.065,21.129Z" transform="translate(-1 -1)" fill="#52c1b6"/>
      <path id="Caminho_48" data-name="Caminho 48" d="M9.194,60.29H3V51H9.194Z" transform="translate(-1.452 -12.29)" fill="#52c1b6"/>
      <path id="Caminho_49" data-name="Caminho 49" d="M21.194,58.032H15V41h6.194Z" transform="translate(-4.161 -10.032)" fill="#52c1b6"/>
      <path id="Caminho_50" data-name="Caminho 50" d="M33.194,56.226H27V33h6.194Z" transform="translate(-6.871 -8.226)" fill="#52c1b6"/>
    </g>
    <path id="Caminho_51" data-name="Caminho 51" d="M47.982,38.415a5.452,5.452,0,0,0,1.084-3.252V25.1a2.315,2.315,0,0,0-3.187-2.152A2.3,2.3,0,0,0,42.1,21.831a2.251,2.251,0,0,0-2.323-.461V14.26a2.285,2.285,0,0,0-.233-.995L43.42,9.388,42.325,8.293,38.448,12.17a2.285,2.285,0,0,0-.995-.233,2.319,2.319,0,0,0-2.18,1.548H27.842L1.293,40.035,2.388,41.13l26.1-26.1h6.647V28.98A2.335,2.335,0,0,1,34.895,30l-.65-3.247a5,5,0,0,0-4.893-4.01A1.962,1.962,0,0,0,27.719,25.8l.8,1.195a3.468,3.468,0,0,1,.552,1.483l.535,4.284a5.3,5.3,0,0,0,.648,1.971l2.557,5.258v1.37H31.26v9.29H48.292v-9.29H46.744V40.066ZM46.744,42.9v1.548H32.808V42.9ZM32.808,49.1V46H46.744v3.1Zm1.548-7.742V39.63L31.618,34a3.849,3.849,0,0,1-.48-1.44L30.6,28.28a5.021,5.021,0,0,0-.8-2.149l-.8-1.2a.414.414,0,0,1,.345-.644,3.45,3.45,0,0,1,3.375,2.766l1,4.976h1.887l.661-1.322a3.9,3.9,0,0,0,.409-1.731V14.26a.774.774,0,0,1,1.548,0V26.647h1.548v-3.1a.774.774,0,0,1,1.548,0v3.1h1.548v-3.1a.774.774,0,1,1,1.548,0v3.1h1.548V25.1a.774.774,0,1,1,1.548,0V35.163a3.893,3.893,0,0,1-.774,2.323L45.2,39.55v1.806Z" transform="translate(-0.066 -1.647)" fill="#fff"/>
    <path id="Caminho_52" data-name="Caminho 52" d="M13.1,15.839a1.55,1.55,0,0,1-1.548-1.548H10a3.094,3.094,0,0,0,2.323,2.987v1.658h1.548V17.387h2.323v-3.1a3.1,3.1,0,0,0-3.1-3.1,1.55,1.55,0,0,1-1.548-1.548V8.1H13.1a1.55,1.55,0,0,1,1.548,1.548h1.548a3.094,3.094,0,0,0-2.323-2.987V5H12.323V6.548H10v3.1a3.1,3.1,0,0,0,3.1,3.1,1.55,1.55,0,0,1,1.548,1.548v1.548Z" transform="translate(-2.032 -0.903)" fill="#fff"/>
    <path id="Caminho_53" data-name="Caminho 53" d="M21,13h1.548v1.548H21Z" transform="translate(-4.516 -2.71)" fill="#fff"/>
    <path id="Caminho_54" data-name="Caminho 54" d="M5,13H6.548v1.548H5Z" transform="translate(-0.903 -2.71)" fill="#fff"/>
  </g>
</svg>
