<svg xmlns="http://www.w3.org/2000/svg" width="12" height="12" viewBox="0 0 12 12">
  <path id="cog-solid_1_" data-name="cog-solid (1)" d="M30.491,15.541l-1.077-.6a4.465,4.465,0,0,0,0-1.7l1.077-.6a.287.287,0,0,0,.139-.339,5.97,5.97,0,0,0-1.382-2.289.314.314,0,0,0-.374-.056l-1.077.6a4.825,4.825,0,0,0-1.537-.849V8.527a.293.293,0,0,0-.238-.283,6.63,6.63,0,0,0-2.76,0,.293.293,0,0,0-.238.283v1.19a4.978,4.978,0,0,0-1.537.849l-1.074-.6a.31.31,0,0,0-.374.056,5.935,5.935,0,0,0-1.382,2.289.284.284,0,0,0,.139.339l1.077.6a4.464,4.464,0,0,0,0,1.7l-1.077.6a.287.287,0,0,0-.139.339,5.97,5.97,0,0,0,1.382,2.289.314.314,0,0,0,.374.056l1.077-.6a4.825,4.825,0,0,0,1.537.849v1.19a.293.293,0,0,0,.238.283,6.63,6.63,0,0,0,2.76,0,.293.293,0,0,0,.238-.283V18.48a4.977,4.977,0,0,0,1.537-.849l1.077.6a.31.31,0,0,0,.374-.056,5.935,5.935,0,0,0,1.382-2.289A.293.293,0,0,0,30.491,15.541Zm-5.848.491A1.937,1.937,0,1,1,26.664,14.1,1.983,1.983,0,0,1,24.642,16.032Z" transform="translate(-18.644 -8.099)" fill="#fff"/>
</svg>
